solid Bed
facet normal -0.19241434 0 -0.98131377
 outer loop
  vertex 10.8 1 2.220446e-16
  vertex 10.8 4.5519144e-14 2.220446e-16
  vertex 10.5 1 0.05882353
 endloop
endfacet
facet normal -0.19241434 0 -0.98131377
 outer loop
  vertex 10.5 1 0.05882353
  vertex 10.8 4.5519144e-14 2.220446e-16
  vertex 10.5 4.5519144e-14 0.05882353
 endloop
endfacet
facet normal -0.19241445 0 -0.9813137
 outer loop
  vertex 10.5 1 0.05882353
  vertex 10.5 4.5519144e-14 0.05882353
  vertex 5.7 0.7032727 1
 endloop
endfacet
facet normal -0.19241446 0 -0.98131377
 outer loop
  vertex 5.7 0.7032727 1
  vertex 10.5 4.5519144e-14 0.05882353
  vertex 5.7 0.29672727 1
 endloop
endfacet
facet normal 0 0 -1
 outer loop
  vertex 10.8 1 2.220446e-16
  vertex 26.5 1 2.220446e-16
  vertex 10.8 4.5519144e-14 2.220446e-16
 endloop
endfacet
facet normal -0 0 -1
 outer loop
  vertex 10.8 4.5519144e-14 2.220446e-16
  vertex 26.5 1 2.220446e-16
  vertex 26.5 4.5519144e-14 2.220446e-16
 endloop
endfacet
facet normal 0 0 -1
 outer loop
  vertex 5.7 0.7032727 1
  vertex 5.7 0.29672727 1
  vertex 5 0.66 1
 endloop
endfacet
facet normal 0 0 -1
 outer loop
  vertex 5 0.66 1
  vertex 5.7 0.29672727 1
  vertex 5 0.34 1
 endloop
endfacet
facet normal 0 0 -1
 outer loop
  vertex 5 0.66 1
  vertex 5 0.34 1
  vertex 2 0.34 1
 endloop
endfacet
facet normal -0 -0 -1
 outer loop
  vertex 2 0.34 1
  vertex 2 0.66 1
  vertex 5 0.66 1
 endloop
endfacet
endsolid Bed
