solid Open
facet normal 0 -0 1
 outer loop
  vertex 25.5 1 2.54
  vertex 10.5 1 2.54
  vertex 25.5 4.5519144e-14 2.54
 endloop
endfacet
facet normal -0 0 1
 outer loop
  vertex 25.5 4.5519144e-14 2.54
  vertex 10.5 1 2.54
  vertex 5 0.66 2.54
 endloop
endfacet
facet normal -0 0 1
 outer loop
  vertex 25.5 4.5519144e-14 2.54
  vertex 5 0.66 2.54
  vertex 5 0.34 2.54
 endloop
endfacet
facet normal -0 0 1
 outer loop
  vertex 5 0.34 2.54
  vertex 5 0.66 2.54
  vertex 2 0.66 2.54
 endloop
endfacet
facet normal -0 0 1
 outer loop
  vertex 5 0.34 2.54
  vertex 2 0.66 2.54
  vertex 2 0.34 2.54
 endloop
endfacet
facet normal 0 0 1
 outer loop
  vertex 5 0.34 2.54
  vertex 10.5 4.5519144e-14 2.54
  vertex 25.5 4.5519144e-14 2.54
 endloop
endfacet
facet normal 0 -0 1
 outer loop
  vertex 2.000001 0.66 2.54
  vertex 1e-06 0.66 2.54
  vertex 2.000001 0.34 2.54
 endloop
endfacet
facet normal -0 0 1
 outer loop
  vertex 2.000001 0.34 2.54
  vertex 1e-06 0.66 2.54
  vertex 1e-06 0.34 2.54
 endloop
endfacet
endsolid Open
